<svg width="257" height="97" viewBox="0 0 257 97" fill="none" xmlns="http://www.w3.org/2000/svg">
<g clip-path="url(#clip0_554_23025)">
<path d="M125.027 61.6934V65.9441C125.027 68.6547 121.67 72.197 116.372 72.197C112.891 72.197 111.135 70.6569 111.135 68.0695C111.135 66.0673 112.244 64.4656 115.787 63.9419L121.085 63.1103C122.964 62.8639 124.565 62.4634 125.027 61.6934Z" fill="#98BD48"/>
<path d="M59.3565 61.6934V65.9441C59.3565 68.6547 55.9991 72.197 50.701 72.197C47.2203 72.197 45.4646 70.6569 45.4646 68.0695C45.4646 66.0673 46.5735 64.4656 50.1158 63.9419L55.4138 63.1103C57.2928 62.8639 58.8945 62.4634 59.3565 61.6934Z" fill="#98BD48"/>
<path d="M0 32V63.0797C0 81.3148 13.8919 96.1 31.0489 96.1H179.24V32H0ZM33.9444 77.4337C32.5274 77.8341 30.9257 78.0189 29.17 78.0189C22.8555 78.0189 18.6971 75.2467 18.6971 68.1621V50.4815H13.0911V44.013C16.2021 44.013 18.6971 41.518 18.6971 38.4069V36.9284H26.9522V44.013H33.5439V50.4815H26.9522V66.8684C26.9522 69.7947 27.8455 71.3964 31.3261 71.3964C32.0962 71.3964 32.6814 71.3964 33.9136 71.2732V77.4337H33.9444ZM67.4883 77.5877H59.5412V71.5812H59.2024C58.4939 73.4602 55.4445 78.2346 47.9595 78.2346C42.2918 78.2346 37.1786 75.5239 37.1786 68.809C37.1786 61.8476 42.6615 59.8455 48.7912 59.0138L55.0441 58.1821C58.3399 57.7201 59.2948 57.1656 59.2948 55.4099V54.6706C59.2948 50.6047 56.8306 49.3726 53.2267 49.3726C49.5612 49.3726 46.6966 50.6047 46.6966 54.2702V54.9787H39.0268V53.5002C39.0268 47.0008 43.4931 43.3661 53.4731 43.3661C63.3607 43.3661 67.4883 46.9084 67.4883 54.3318V77.5877ZM99.03 50.9743L81.411 70.5955H99.03V77.5569H71.5542V70.5955L89.2348 50.9743H72.2011V44.013H99.03V50.9743ZM133.159 77.5877H125.212V71.5812H124.873C124.165 73.4602 121.115 78.2346 113.63 78.2346C107.963 78.2346 102.85 75.5239 102.85 68.809C102.85 61.8476 108.332 59.8455 114.462 59.0138L120.715 58.1821C124.011 57.7201 124.966 57.1656 124.966 55.4099V54.6706C124.966 50.6047 122.502 49.3726 118.898 49.3726C115.232 49.3726 112.368 50.6047 112.368 54.2702V54.9787H104.636V53.5002C104.636 47.0008 109.102 43.3661 119.113 43.3661C128.97 43.3661 133.098 46.9084 133.098 54.3318V77.5877H133.159ZM168.428 77.5877H160.173V70.6879H159.927C159.28 73.5834 156.045 78.2346 148.961 78.2346C142.369 78.2346 137.287 74.2302 137.287 65.1435V44.0438H145.542V63.2029C145.542 68.6858 147.914 71.3964 152.38 71.3964C156.877 71.3964 160.173 68.6858 160.173 63.2029V44.0438H168.428V77.5877Z" fill="#98BD48"/>
<path d="M168.428 44.0137V77.5884H160.173V70.6886H159.927C159.28 73.5841 156.045 78.2353 148.961 78.2353C142.369 78.2353 137.287 74.2309 137.287 65.1442V44.0445H145.542V63.2036C145.542 68.6865 147.914 71.3971 152.38 71.3971C156.877 71.3971 160.173 68.6865 160.173 63.2036V44.0445H168.428V44.0137Z" fill="#08231E"/>
<path d="M119.144 43.3652C109.133 43.3652 104.667 46.9691 104.667 53.4993V54.9778H112.398V54.2693C112.398 50.6038 115.232 49.3717 118.928 49.3717C122.532 49.3717 124.997 50.6038 124.997 54.6698V55.3782C124.997 57.134 124.042 57.6884 120.746 58.1504L114.493 58.9821C108.363 59.8138 102.88 61.8159 102.88 68.7773C102.88 75.4922 107.994 78.2029 113.661 78.2029C121.146 78.2029 124.196 73.4285 124.904 71.5495H125.243V77.556H133.19V54.3309C133.159 46.9075 129.032 43.3652 119.144 43.3652ZM125.027 65.9435C125.027 68.6541 121.67 72.1964 116.372 72.1964C112.891 72.1964 111.135 70.6563 111.135 68.0688C111.135 66.0667 112.244 64.465 115.787 63.9413L121.085 63.1096C122.964 62.8632 124.565 62.4628 125.027 61.6927V65.9435Z" fill="#08231E"/>
<path d="M33.9444 71.2417V77.433C32.5274 77.8335 30.9257 78.0183 29.17 78.0183C22.8555 78.0183 18.6971 75.246 18.6971 68.1615V50.4808H13.0911V44.0123C16.2021 44.0123 18.6971 41.5173 18.6971 38.4063V36.9277H26.9522V44.0123H33.5439V50.4808H26.9522V66.8678C26.9522 69.794 27.8455 71.3957 31.3261 71.3957C32.1578 71.3649 32.7123 71.3649 33.9444 71.2417Z" fill="#08231E"/>
<path d="M53.4732 43.3652C43.4623 43.3652 39.0268 46.9691 39.0268 53.4993V54.9778H46.7582V54.2693C46.7582 50.6038 49.592 49.3717 53.2883 49.3717C56.8922 49.3717 59.3564 50.6038 59.3564 54.6698V55.3782C59.3564 57.134 58.3708 57.6884 55.1057 58.1504L48.8528 58.9821C42.7231 59.8138 37.2402 61.8159 37.2402 68.7773C37.2402 75.4922 42.3535 78.2029 48.0211 78.2029C55.5061 78.2029 58.5556 73.4285 59.264 71.5495H59.6028V77.556H67.5499V54.3309C67.4883 46.9075 63.3608 43.3652 53.4732 43.3652ZM59.3564 65.9435C59.3564 68.6541 55.999 72.1964 50.7009 72.1964C47.2202 72.1964 45.4645 70.6563 45.4645 68.0688C45.4645 66.0667 46.5734 64.465 50.1157 63.9413L55.4137 63.1096C57.2927 62.8632 58.8944 62.4628 59.3564 61.6927V65.9435Z" fill="#08231E"/>
<path d="M99.0301 50.975L81.411 70.5962H99.0301V77.5884H71.5234V70.5962L89.2041 50.975H72.1703V44.0137H99.0301V50.975Z" fill="#08231E"/>
<path d="M194.025 46.9393C194.025 46.6621 193.902 46.4465 193.686 46.3233C193.471 46.1693 193.193 46.1077 192.855 46.1077C192.115 46.1077 191.684 46.3849 191.592 46.9393H190.514C190.575 46.3849 190.822 45.9537 191.253 45.6456C191.653 45.3376 192.208 45.1836 192.885 45.1836C193.563 45.1836 194.117 45.3376 194.518 45.6456C194.918 45.9537 195.103 46.3541 195.103 46.8469C195.103 47.4322 194.887 47.8634 194.456 48.079V48.2946C195.041 48.5411 195.319 49.0031 195.319 49.7116C195.319 50.2352 195.103 50.6972 194.672 51.0361C194.241 51.4057 193.655 51.5905 192.885 51.5905C192.084 51.5905 191.499 51.4365 191.037 51.0977C190.606 50.7588 190.329 50.2968 190.267 49.7116H191.345C191.499 50.3584 192.023 50.6664 192.885 50.6664C193.286 50.6664 193.625 50.574 193.871 50.42C194.117 50.266 194.241 50.0196 194.241 49.7116C194.241 49.0955 193.84 48.7875 193.009 48.7875H192.054V47.8634H193.009C193.378 47.8634 193.625 47.771 193.779 47.617C193.963 47.3706 194.025 47.1858 194.025 46.9393Z" fill="#98BD48"/>
<path d="M200.74 51.4359L200.185 49.6801H197.66L197.105 51.4359H196.058L198.091 45.2754H199.754L201.818 51.4359H200.74ZM198.738 46.2611L197.968 48.7253H199.908L199.138 46.2611H198.738Z" fill="#98BD48"/>
<path d="M207.054 48.078V48.2936C207.301 48.4168 207.517 48.5708 207.64 48.8172C207.794 49.0637 207.855 49.3409 207.855 49.6489C207.855 50.1725 207.671 50.6038 207.301 50.9118C206.931 51.2506 206.408 51.4046 205.73 51.4046H202.865V45.2441H205.638C206.284 45.2441 206.777 45.3982 207.116 45.7062C207.455 46.0142 207.64 46.3838 207.64 46.8459C207.701 47.4311 207.486 47.8624 207.054 48.078ZM203.943 47.8008H205.607C206.284 47.8008 206.654 47.5235 206.654 46.9691C206.654 46.6919 206.562 46.507 206.408 46.353C206.254 46.2298 205.976 46.1374 205.607 46.1374H203.943V47.8008ZM203.943 50.5114H205.638C206.438 50.5114 206.808 50.2033 206.808 49.5873C206.808 49.2793 206.716 49.0636 206.531 48.9096C206.346 48.7556 206.038 48.6632 205.638 48.6632H203.943V50.5114Z" fill="#98BD48"/>
<path d="M209.673 46.0456C210.196 45.4604 210.905 45.1523 211.829 45.1523C212.753 45.1523 213.461 45.4604 213.985 46.0456C214.509 46.6309 214.755 47.4009 214.755 48.3558C214.755 49.3107 214.509 50.0499 213.985 50.666C213.461 51.2512 212.753 51.5593 211.829 51.5593C210.905 51.5593 210.165 51.2512 209.673 50.666C209.149 50.0807 208.903 49.3107 208.903 48.3558C208.903 47.4009 209.18 46.6309 209.673 46.0456ZM210.443 49.9575C210.751 50.3888 211.244 50.6044 211.86 50.6044C212.476 50.6044 212.938 50.3888 213.277 49.9575C213.585 49.5263 213.739 49.0027 213.739 48.3558C213.739 47.7089 213.585 47.1545 213.277 46.7541C212.969 46.3228 212.506 46.1072 211.86 46.1072C211.244 46.1072 210.782 46.3228 210.443 46.7541C210.135 47.1853 209.95 47.7089 209.95 48.3558C209.95 49.0027 210.135 49.5263 210.443 49.9575Z" fill="#98BD48"/>
<path d="M220.916 50.4806H221.809V52.9448H220.792V51.4354H216.449V52.9448H215.433V50.4806H216.08C216.572 49.4333 216.819 48.1704 216.819 46.6919V45.2441H220.916V50.4806ZM219.899 50.4806V46.199H217.774V46.7843C217.774 48.3244 217.558 49.5565 217.127 50.4806H219.899Z" fill="#98BD48"/>
<path d="M191.13 58.5827C191.653 57.9975 192.362 57.6895 193.286 57.6895C194.21 57.6895 194.918 57.9975 195.442 58.5827C195.966 59.168 196.212 59.938 196.212 60.8929C196.212 61.8478 195.966 62.5871 195.442 63.2031C194.918 63.7884 194.21 64.0964 193.286 64.0964C192.362 64.0964 191.622 63.7884 191.13 63.2031C190.606 62.6179 190.359 61.8478 190.359 60.8929C190.359 59.938 190.606 59.168 191.13 58.5827ZM191.9 62.4946C192.208 62.9259 192.7 63.1415 193.317 63.1415C193.933 63.1415 194.395 62.9259 194.733 62.4946C195.041 62.0634 195.195 61.5398 195.195 60.8929C195.195 60.2461 195.041 59.6916 194.733 59.2912C194.425 58.86 193.963 58.6443 193.317 58.6443C192.7 58.6443 192.238 58.86 191.9 59.2912C191.592 59.7224 191.407 60.2461 191.407 60.8929C191.407 61.509 191.561 62.0634 191.9 62.4946Z" fill="#98BD48"/>
<path d="M197.321 57.7808H198.368V59.5365C198.368 59.6906 198.368 59.8138 198.368 59.8754C198.368 59.937 198.399 60.0602 198.461 60.1526C198.522 60.2758 198.584 60.3682 198.676 60.4298C198.769 60.4914 198.923 60.553 199.107 60.5838C199.292 60.6146 199.508 60.6454 199.785 60.6454C200.216 60.6454 200.648 60.5838 201.048 60.4914V57.75H202.095V63.9105H201.048V61.4463C200.617 61.5387 200.124 61.6003 199.57 61.6003C199.169 61.6003 198.799 61.5695 198.522 61.4771C198.214 61.3847 197.999 61.2923 197.845 61.1999C197.691 61.0767 197.567 60.9535 197.506 60.7378C197.413 60.553 197.383 60.3682 197.352 60.2142C197.352 60.0602 197.321 59.8754 197.321 59.629V57.7808Z" fill="#98BD48"/>
<path d="M203.697 57.7812H204.683V62.5864H204.867L207.424 57.7812H208.903V63.9418H207.917V59.1366H207.701L205.145 63.9418H203.697V57.7812Z" fill="#98BD48"/>
<path d="M214.539 62.0942H215.618C215.525 62.6795 215.248 63.1723 214.786 63.5419C214.355 63.9116 213.769 64.0964 213.092 64.0964C212.168 64.0964 211.459 63.7884 210.966 63.2031C210.443 62.6179 210.196 61.8478 210.196 60.8929C210.196 59.938 210.443 59.168 210.966 58.5827C211.49 57.9975 212.198 57.6895 213.092 57.6895C213.739 57.6895 214.293 57.8435 214.724 58.1823C215.155 58.5211 215.433 58.9524 215.525 59.5068H214.447C214.262 58.9216 213.8 58.6135 213.092 58.6135C212.476 58.6135 212.014 58.8291 211.706 59.2604C211.398 59.6916 211.244 60.2153 211.244 60.8621C211.244 61.509 211.398 62.0634 211.706 62.4638C212.014 62.8951 212.476 63.1107 213.092 63.1107C213.461 63.1107 213.769 63.0183 214.016 62.8335C214.293 62.6795 214.478 62.4022 214.539 62.0942Z" fill="#98BD48"/>
<path d="M221.378 57.7812V58.7053H219.406V63.9418H218.39V58.7053H216.418V57.7812H221.378Z" fill="#98BD48"/>
<path d="M226.583 57.7812H227.63V63.9418H226.583V61.2619H223.503V63.9418H222.486V57.7812H223.503V60.2763H226.583V57.7812Z" fill="#98BD48"/>
<path d="M231.758 63.9418H229.263V57.7812H230.31V59.999H231.789C232.497 59.999 233.052 60.1838 233.421 60.5227C233.822 60.8615 234.006 61.3543 234.006 61.9704C234.006 62.5864 233.822 63.0793 233.421 63.4181C232.99 63.7877 232.466 63.9418 231.758 63.9418ZM230.279 63.0485H231.573C232.035 63.0485 232.374 62.9561 232.59 62.7712C232.805 62.5864 232.898 62.34 232.898 61.9704C232.898 61.6316 232.805 61.3543 232.59 61.2003C232.374 61.0463 232.035 60.9231 231.573 60.9231H230.279V63.0485ZM234.715 57.7812H235.762V63.9418H234.715V57.7812Z" fill="#98BD48"/>
<path d="M241.153 63.9418L239.736 61.2927H239.428L237.98 63.9418H236.871L238.627 60.7075L237.118 57.7812H238.196L239.459 60.153H239.736L240.999 57.7812H242.077L240.537 60.6767L242.323 63.9418H241.153Z" fill="#98BD48"/>
<path d="M194.672 74.6001H195.75C195.658 75.1853 195.38 75.6782 194.918 76.0478C194.487 76.4174 193.902 76.6022 193.224 76.6022C192.3 76.6022 191.592 76.2942 191.099 75.7089C190.575 75.1237 190.329 74.3536 190.329 73.3988C190.329 72.4439 190.575 71.6738 191.099 71.0886C191.622 70.5033 192.331 70.1953 193.224 70.1953C193.871 70.1953 194.425 70.3493 194.857 70.6881C195.288 71.027 195.565 71.4582 195.658 72.0126H194.579C194.395 71.4274 193.933 71.1194 193.224 71.1194C192.608 71.1194 192.146 71.335 191.838 71.7662C191.53 72.1975 191.376 72.7211 191.376 73.368C191.376 74.0148 191.53 74.5693 191.838 74.9697C192.146 75.4009 192.608 75.6165 193.224 75.6165C193.594 75.6165 193.902 75.5241 194.148 75.3393C194.456 75.1853 194.61 74.9389 194.672 74.6001Z" fill="#98BD48"/>
<path d="M197.567 71.0886C198.091 70.5033 198.799 70.1953 199.723 70.1953C200.648 70.1953 201.356 70.5033 201.88 71.0886C202.403 71.6738 202.65 72.4439 202.65 73.3988C202.65 74.3536 202.403 75.0929 201.88 75.7089C201.356 76.2942 200.648 76.6022 199.723 76.6022C198.799 76.6022 198.06 76.2942 197.567 75.7089C197.044 75.1237 196.797 74.3536 196.797 73.3988C196.797 72.4439 197.044 71.7046 197.567 71.0886ZM198.307 75.0005C198.615 75.4317 199.107 75.6473 199.723 75.6473C200.34 75.6473 200.802 75.4317 201.14 75.0005C201.448 74.5693 201.602 74.0456 201.602 73.3988C201.602 72.7519 201.448 72.1975 201.14 71.797C200.832 71.3658 200.37 71.1502 199.723 71.1502C199.107 71.1502 198.645 71.3658 198.307 71.797C197.999 72.2283 197.814 72.7519 197.814 73.3988C197.845 74.0456 197.999 74.6001 198.307 75.0005Z" fill="#98BD48"/>
<path d="M204.529 71.0886C205.052 70.5033 205.761 70.1953 206.685 70.1953C207.609 70.1953 208.317 70.5033 208.841 71.0886C209.365 71.6738 209.611 72.4439 209.611 73.3988C209.611 74.3536 209.365 75.0929 208.841 75.7089C208.317 76.2942 207.609 76.6022 206.685 76.6022C205.761 76.6022 205.021 76.2942 204.529 75.7089C204.005 75.1237 203.759 74.3536 203.759 73.3988C203.759 72.4439 204.005 71.7046 204.529 71.0886ZM205.268 75.0005C205.576 75.4317 206.069 75.6473 206.685 75.6473C207.301 75.6473 207.763 75.4317 208.102 75.0005C208.41 74.5693 208.564 74.0456 208.564 73.3988C208.564 72.7519 208.41 72.1975 208.102 71.797C207.794 71.3658 207.332 71.1502 206.685 71.1502C206.069 71.1502 205.607 71.3658 205.268 71.797C204.96 72.2283 204.775 72.7519 204.775 73.3988C204.806 74.0456 204.96 74.6001 205.268 75.0005Z" fill="#98BD48"/>
<path d="M210.935 70.3184H213.646C214.324 70.3184 214.847 70.4724 215.248 70.8112C215.617 71.15 215.802 71.6121 215.802 72.1973C215.802 72.8134 215.617 73.2754 215.248 73.6142C214.878 73.9531 214.355 74.1071 213.646 74.1071H211.983V76.4481H210.935V70.3184ZM211.983 73.2138H213.492C214.324 73.2138 214.755 72.875 214.755 72.2281C214.755 71.8893 214.663 71.6429 214.447 71.4889C214.262 71.3348 213.923 71.2424 213.492 71.2424H211.983V73.2138Z" fill="#98BD48"/>
<path d="M219.098 73.3062H219.345L220.762 70.3184H221.809L218.852 76.4789H217.805L218.698 74.6307L216.418 70.3184H217.527L219.098 73.3062Z" fill="#98BD48"/>
<path d="M228.77 73.8299H227.353V76.4789H226.337V73.8299H224.889L223.811 76.4789H222.733L224.027 73.3678L222.795 70.3184H223.873L224.889 72.875H226.337V70.3184H227.353V72.875H228.77L229.787 70.3184H230.865L229.633 73.3678L230.957 76.4789H229.879L228.77 73.8299Z" fill="#98BD48"/>
<path d="M233.206 75.524H236.717V76.4789H232.189V70.3184H236.594V71.2424H233.206V72.8442H235.885V73.7682H233.206V75.524Z" fill="#98BD48"/>
<path d="M242.046 70.3184H243.093V76.4789H242.046V73.799H238.966V76.4789H237.919V70.3184H238.966V72.8134H242.046V70.3184Z" fill="#98BD48"/>
<path d="M244.695 70.3184H245.681V75.1236H245.896L248.422 70.3184H249.901V76.4789H248.915V71.6737H248.7L246.174 76.4789H244.695V70.3184Z" fill="#98BD48"/>
<path d="M251.502 70.3181H252.488V75.1233H252.704L255.26 70.3181H256.739V76.4786H255.753V71.6734H255.538L252.981 76.4786H251.502V70.3181ZM254.891 68.6855H255.661C255.63 69.086 255.476 69.4248 255.199 69.6712C254.922 69.9177 254.552 70.0101 254.09 70.0101C253.628 70.0101 253.258 69.8868 252.981 69.6712C252.704 69.4248 252.55 69.1168 252.519 68.6855H253.32C253.32 68.8704 253.412 69.0244 253.535 69.1476C253.659 69.2708 253.843 69.3324 254.09 69.3324C254.305 69.3324 254.49 69.2708 254.644 69.1476C254.798 69.0244 254.891 68.8704 254.891 68.6855Z" fill="#98BD48"/>
</g>
<rect width="179.24" height="33" fill="#98BD48"/>
<defs>
<clipPath id="clip0_554_23025">
<rect width="256.739" height="64.1" fill="white" transform="translate(0 32)"/>
</clipPath>
</defs>
</svg>
